<svg xmlns="http://www.w3.org/2000/svg" viewBox="0 0 860 200" width="860" height="200" shape-rendering="crispEdges">
<defs>
  <style>
    .ground-tiles { animation: groundScroll 8s linear infinite; }
    @keyframes groundScroll { from{transform:translateX(0)} to{transform:translateX(-64px)} }

    .leg-l { animation: legL 0.35s steps(1) infinite; }
    .leg-r { animation: legR 0.35s steps(1) infinite; }
    @keyframes legL { 0%,49%{transform:translateY(0)} 50%,100%{transform:translateY(2px)} }
    @keyframes legR { 0%,49%{transform:translateY(2px)} 50%,100%{transform:translateY(0)} }

    .cape-run { animation: capeR 0.35s steps(1) infinite; }
    @keyframes capeR { 0%,49%{transform:skewX(-3deg)} 50%,100%{transform:skewX(3deg)} }

    .needle-run { animation: needleR 0.7s ease-in-out infinite; transform-box:fill-box; transform-origin:right center; }
    @keyframes needleR { 0%,100%{transform:rotate(-5deg)} 50%{transform:rotate(5deg)} }

    .bar { transform-box:fill-box; transform-origin:bottom center; animation: barGrow 0.6s cubic-bezier(0.22,1,0.36,1) both; }
    .b0{animation-delay:0.1s} .b1{animation-delay:0.2s} .b2{animation-delay:0.3s}
    .b3{animation-delay:0.4s} .b4{animation-delay:0.5s} .b5{animation-delay:0.6s}
    .b6{animation-delay:0.7s} .b7{animation-delay:0.8s} .b8{animation-delay:0.9s}
    .b9{animation-delay:1.0s} .b10{animation-delay:1.1s} .b11{animation-delay:1.2s}
    @keyframes barGrow { from{transform:scaleY(0);opacity:0} to{transform:scaleY(1);opacity:1} }

    .coin { animation: coinFloat 1.5s ease-in-out infinite; transform-box:fill-box; transform-origin:center center; }
    .c0{animation-delay:0s} .c1{animation-delay:0.4s} .c2{animation-delay:0.8s}
    .c3{animation-delay:1.2s} .c4{animation-delay:1.6s} .c5{animation-delay:0.2s}
    @keyframes coinFloat { 0%,100%{transform:translateY(0) rotate(0deg);opacity:1} 50%{transform:translateY(-5px) rotate(8deg);opacity:0.8} }

    .star { animation: starT 2s ease-in-out infinite; }
    .st0{animation-delay:0s} .st1{animation-delay:0.6s} .st2{animation-delay:1.2s}
    .st3{animation-delay:0.3s} .st4{animation-delay:0.9s}
    @keyframes starT { 0%,100%{opacity:0.2;transform:scale(0.6)} 50%{opacity:0.9;transform:scale(1)} }

    .score-val { animation: scoreP 0.8s steps(1) 3; }
    @keyframes scoreP { 0%,49%{fill:#C8102E} 50%,100%{fill:#D8CAB4} }

    .lbl       { font-family:'Courier New',monospace; font-size:9px;  fill:#8A7D6E; letter-spacing:1px; }
    .lbl-month { font-family:'Courier New',monospace; font-size:8px;  fill:#8A7D6E; }
    .score-lbl { font-family:'Courier New',monospace; font-size:10px; fill:#C8102E; letter-spacing:2px; }
    .score-num { font-family:'Courier New',monospace; font-size:18px; font-weight:bold; fill:#D8CAB4; letter-spacing:1px; }
    .title-txt { font-family:'Courier New',monospace; font-size:11px; fill:#C8102E; letter-spacing:3px; }
    .zero-lbl  { font-family:'Courier New',monospace; font-size:7px;  fill:#3A2A3E; }
  </style>
</defs>

<!-- BG -->
<rect width="860" height="200" fill="#06030A"/>
<rect width="860" height="12"  fill="#0C0518"/>
<rect x="0" y="172" width="860" height="28" fill="#0C0518"/>
<rect x="0" y="172" width="860" height="2"  fill="#140A28" opacity="0.8"/>

<!-- grid -->
<g opacity="0.025" stroke="#D8CAB4" stroke-width="0.5">
  <line x1="0" y1="40"  x2="860" y2="40"/>
  <line x1="0" y1="80"  x2="860" y2="80"/>
  <line x1="0" y1="120" x2="860" y2="120"/>
  <line x1="0" y1="160" x2="860" y2="160"/>
</g>

<!-- ceiling stalactites -->
<rect x="60"  y="0" width="8"  height="18" fill="#0C0518"/>
<rect x="58"  y="0" width="12" height="2"  fill="#140A28"/>
<rect x="200" y="0" width="6"  height="12" fill="#0C0518"/>
<rect x="380" y="0" width="10" height="22" fill="#0C0518"/>
<rect x="378" y="0" width="14" height="2"  fill="#140A28"/>
<rect x="560" y="0" width="6"  height="14" fill="#0C0518"/>
<rect x="700" y="0" width="8"  height="20" fill="#0C0518"/>
<rect x="698" y="0" width="12" height="2"  fill="#140A28"/>

<!-- scrolling ground -->
<g class="ground-tiles">
  <rect x="0"   y="173" width="64" height="4" fill="#140A28" opacity="0.6"/>
  <rect x="64"  y="173" width="64" height="4" fill="#1A0F30" opacity="0.5"/>
  <rect x="128" y="173" width="64" height="4" fill="#140A28" opacity="0.6"/>
  <rect x="192" y="173" width="64" height="4" fill="#1A0F30" opacity="0.5"/>
  <rect x="256" y="173" width="64" height="4" fill="#140A28" opacity="0.6"/>
  <rect x="320" y="173" width="64" height="4" fill="#1A0F30" opacity="0.5"/>
  <rect x="384" y="173" width="64" height="4" fill="#140A28" opacity="0.6"/>
  <rect x="448" y="173" width="64" height="4" fill="#1A0F30" opacity="0.5"/>
  <rect x="512" y="173" width="64" height="4" fill="#140A28" opacity="0.6"/>
  <rect x="576" y="173" width="64" height="4" fill="#1A0F30" opacity="0.5"/>
  <rect x="640" y="173" width="64" height="4" fill="#140A28" opacity="0.6"/>
  <rect x="704" y="173" width="64" height="4" fill="#1A0F30" opacity="0.5"/>
  <rect x="768" y="173" width="64" height="4" fill="#140A28" opacity="0.6"/>
  <rect x="832" y="173" width="64" height="4" fill="#1A0F30" opacity="0.5"/>
  <rect x="896" y="173" width="64" height="4" fill="#140A28" opacity="0.6"/>
</g>

<!-- stars -->
<rect class="star st0" x="30"  y="28" width="2" height="2" fill="#D8CAB4"/>
<rect class="star st1" x="160" y="20" width="2" height="2" fill="#D8CAB4"/>
<rect class="star st2" x="320" y="30" width="2" height="2" fill="#C8102E"/>
<rect class="star st3" x="500" y="22" width="2" height="2" fill="#D8CAB4"/>
<rect class="star st4" x="680" y="26" width="2" height="2" fill="#D8CAB4"/>
<rect class="star st0" x="800" y="20" width="2" height="2" fill="#C8102E"/>

<!-- BAR GRID LINES -->
<g opacity="0.08" stroke="#7B6FC8" stroke-width="0.5" stroke-dasharray="2,3">
  <line x1="80" y1="80"  x2="780" y2="80"/>
  <line x1="80" y1="110" x2="780" y2="110"/>
  <line x1="80" y1="140" x2="780" y2="140"/>
</g>

<!-- LEFT AXIS -->
<rect x="78" y="76" width="1" height="95" fill="#C8102E" opacity="0.4"/>
<text class="lbl" x="72" y="82"  text-anchor="end">25</text>
<text class="lbl" x="72" y="112" text-anchor="end">15</text>
<text class="lbl" x="72" y="142" text-anchor="end">5</text>

<!-- ═══════════════════════════════════════════
     MESES 2026
     Fórmula: height = commits × 1.2 | y = 170 - height
     Zero = apenas linha pontilhada no chão
═══════════════════════════════════════════ -->

<!-- Jan — 0 commits -->
<g class="bar b0">
  <rect x="98" y="169" width="40" height="1" fill="#3A2A3E" opacity="0.5"/>
</g>
<text class="lbl-month" x="118" y="186" text-anchor="middle">JAN</text>
<text class="zero-lbl"  x="118" y="167" text-anchor="middle">—</text>

<!-- Fev — 8 commits | height=10 y=160 -->
<g class="bar b1">
  <rect x="152" y="160" width="40" height="10" fill="#7B6FC8" opacity="0.75"/>
  <rect x="152" y="158" width="40" height="3"  fill="#9B8FE8" opacity="0.6"/>
  <rect class="coin c1" x="166" y="150" width="12" height="12" fill="#C8A44A" opacity="0.9"/>
  <rect x="168" y="152" width="8" height="8" fill="#A08030" opacity="0.7"/>
  <text x="172" y="160" text-anchor="middle" font-family="'Courier New',monospace" font-size="7" fill="#D8CAB4">8</text>
</g>
<text class="lbl-month" x="172" y="186" text-anchor="middle">FEV</text>

<!-- Mar — 0 commits -->
<g class="bar b2">
  <rect x="206" y="169" width="40" height="1" fill="#3A2A3E" opacity="0.5"/>
</g>
<text class="lbl-month" x="226" y="186" text-anchor="middle">MAR</text>
<text class="zero-lbl"  x="226" y="167" text-anchor="middle">—</text>

<!-- Abr — 0 commits -->
<g class="bar b3">
  <rect x="260" y="169" width="40" height="1" fill="#3A2A3E" opacity="0.5"/>
</g>
<text class="lbl-month" x="280" y="186" text-anchor="middle">ABR</text>
<text class="zero-lbl"  x="280" y="167" text-anchor="middle">—</text>

<!-- Mai — 5 commits | height=6 y=164 -->
<g class="bar b4">
  <rect x="314" y="164" width="40" height="6" fill="#7B6FC8" opacity="0.7"/>
  <rect x="314" y="162" width="40" height="3" fill="#9B8FE8" opacity="0.55"/>
  <rect class="coin c4" x="328" y="154" width="12" height="12" fill="#C8A44A" opacity="0.9"/>
  <rect x="330" y="156" width="8" height="8" fill="#A08030" opacity="0.7"/>
  <text x="334" y="164" text-anchor="middle" font-family="'Courier New',monospace" font-size="7" fill="#D8CAB4">5</text>
</g>
<text class="lbl-month" x="334" y="186" text-anchor="middle">MAI</text>

<!-- Jun — 23 commits | height=28 y=142  ★ PICO -->
<g class="bar b5">
  <rect x="368" y="142" width="40" height="28" fill="#C8102E" opacity="0.9"/>
  <rect x="368" y="140" width="40" height="4"  fill="#E83050" opacity="0.75"/>
  <rect class="coin c5" x="382" y="130" width="12" height="12" fill="#C8A44A" opacity="0.9"/>
  <rect x="384" y="132" width="8" height="8" fill="#A08030" opacity="0.7"/>
  <text x="388" y="142" text-anchor="middle" font-family="'Courier New',monospace" font-size="7" fill="#D8CAB4">23</text>
  <!-- PICO label -->
  <rect x="372" y="126" width="32" height="11" fill="#8B0A1F"/>
  <text x="388" y="135" text-anchor="middle" font-family="'Courier New',monospace" font-size="6" fill="#D8CAB4" letter-spacing="1">PICO!</text>
</g>
<text class="lbl-month" x="388" y="186" text-anchor="middle">JUN</text>

<!-- Jul — 0 commits -->
<g class="bar b6">
  <rect x="422" y="169" width="40" height="1" fill="#3A2A3E" opacity="0.5"/>
</g>
<text class="lbl-month" x="442" y="186" text-anchor="middle">JUL</text>
<text class="zero-lbl"  x="442" y="167" text-anchor="middle">—</text>

<!-- Ago — 0 commits -->
<g class="bar b7">
  <rect x="476" y="169" width="40" height="1" fill="#3A2A3E" opacity="0.5"/>
</g>
<text class="lbl-month" x="496" y="186" text-anchor="middle">AGO</text>
<text class="zero-lbl"  x="496" y="167" text-anchor="middle">—</text>

<!-- Set — 0 commits -->
<g class="bar b8">
  <rect x="530" y="169" width="40" height="1" fill="#3A2A3E" opacity="0.5"/>
</g>
<text class="lbl-month" x="550" y="186" text-anchor="middle">SET</text>
<text class="zero-lbl"  x="550" y="167" text-anchor="middle">—</text>

<!-- Out — 0 commits -->
<g class="bar b9">
  <rect x="584" y="169" width="40" height="1" fill="#3A2A3E" opacity="0.5"/>
</g>
<text class="lbl-month" x="604" y="186" text-anchor="middle">OUT</text>
<text class="zero-lbl"  x="604" y="167" text-anchor="middle">—</text>

<!-- Nov — 0 commits -->
<g class="bar b10">
  <rect x="638" y="169" width="40" height="1" fill="#3A2A3E" opacity="0.5"/>
</g>
<text class="lbl-month" x="658" y="186" text-anchor="middle">NOV</text>
<text class="zero-lbl"  x="658" y="167" text-anchor="middle">—</text>

<!-- Dez — 0 commits -->
<g class="bar b11">
  <rect x="692" y="169" width="40" height="1" fill="#3A2A3E" opacity="0.5"/>
</g>
<text class="lbl-month" x="712" y="186" text-anchor="middle">DEZ</text>
<text class="zero-lbl"  x="712" y="167" text-anchor="middle">—</text>

<!-- SCORE PANEL -->
<rect x="745" y="16" width="100" height="52" fill="#0C0518" opacity="0.9"/>
<rect x="745" y="16" width="100" height="52" fill="none" stroke="#C8102E" stroke-width="1" opacity="0.5"/>
<text class="score-lbl" x="795" y="30" text-anchor="middle">COMMITS</text>
<text class="score-num score-val" x="795" y="52" text-anchor="middle">36</text>
<text class="lbl" x="795" y="63" text-anchor="middle">2026 TOTAL</text>

<!-- RUNNING HORNET -->
<g transform="translate(24, 128)">
  <rect x="10" y="-28" width="2" height="7" fill="#D0C4AE"/>
  <rect x="8"  y="-26" width="2" height="2" fill="#D0C4AE"/>
  <rect x="22" y="-28" width="2" height="7" fill="#D0C4AE"/>
  <rect x="24" y="-26" width="2" height="2" fill="#D0C4AE"/>
  <rect x="8"  y="-22" width="18" height="16" fill="#E2D6C0"/>
  <rect x="6"  y="-20" width="2"  height="12" fill="#C8BAA2"/>
  <rect x="26" y="-20" width="2"  height="12" fill="#C8BAA2"/>
  <rect x="10" y="-16" width="6" height="6" fill="#06020A"/>
  <rect x="18" y="-16" width="6" height="6" fill="#06020A"/>
  <rect x="10" y="-16" width="2" height="2" fill="#8B0A1F" opacity="0.9"/>
  <rect x="18" y="-16" width="2" height="2" fill="#8B0A1F" opacity="0.9"/>
  <rect x="10" y="-6"  width="14" height="10" fill="#0C0418"/>
  <g class="cape-run">
    <rect x="6"  y="-4"  width="22" height="22" fill="#6B0A1A"/>
    <rect x="6"  y="-4"  width="10" height="22" fill="#9B1428"/>
    <rect x="4"  y="-2"  width="2"  height="18" fill="#4A0812"/>
    <rect x="28" y="-2"  width="6"  height="4"  fill="#6B0A1A" opacity="0.7"/>
    <rect x="30" y="2"   width="8"  height="3"  fill="#4A0812" opacity="0.6"/>
    <rect x="28" y="12"  width="6"  height="4"  fill="#6B0A1A" opacity="0.7"/>
    <rect x="30" y="16"  width="7"  height="3"  fill="#4A0812" opacity="0.5"/>
  </g>
  <g class="needle-run">
    <rect x="-14" y="-2" width="18" height="2" fill="#C8C0A0"/>
    <rect x="-16" y="-3" width="4"  height="4" fill="#D8D0B0"/>
  </g>
  <g class="leg-l"><rect x="10" y="18" width="4" height="6" fill="#0C0418"/><rect x="8"  y="22" width="6" height="2" fill="#140820"/></g>
  <g class="leg-r"><rect x="18" y="18" width="4" height="6" fill="#0C0418"/><rect x="16" y="22" width="6" height="2" fill="#140820"/></g>
  <rect x="-20" y="0" width="14" height="1" fill="#D8CAB4" opacity="0.3"/>
  <rect x="-18" y="4" width="10" height="1" fill="#D8CAB4" opacity="0.2"/>
  <rect x="-16" y="8" width="8"  height="1" fill="#C8102E" opacity="0.15"/>
</g>

<!-- TITLE -->
<text class="title-txt" x="430" y="14" text-anchor="middle">◈ COMMIT HISTORY 2026 ◈</text>

<!-- bottom border -->
<rect x="0" y="197" width="860" height="3" fill="#C8102E" opacity="0.3"/>
</svg>
