<svg xmlns="http://www.w3.org/2000/svg" viewBox="0 0 72 80" width="144" height="160" shape-rendering="crispEdges">
<g>
<rect width="72" height="80" fill="transparent"/>
<!-- silk threads (behind everything) -->
<rect x="2"  y="58" width="18" height="1" fill="#D8CAB4" opacity="0.5"/>
<rect x="1"  y="62" width="15" height="1" fill="#D8CAB4" opacity="0.35"/>
<rect x="3"  y="66" width="12" height="1" fill="#D8CAB4" opacity="0.25"/>
<rect x="0"  y="55" width="20" height="1" fill="#C8102E" opacity="0.2"/>
<!-- horns (angled — action pose) -->
<rect x="26" y="1"  width="2" height="7" fill="#D0C4AE"/>
<rect x="24" y="3"  width="2" height="2" fill="#D0C4AE"/>
<rect x="22" y="5"  width="2" height="2" fill="#D0C4AE"/>
<rect x="40" y="1"  width="2" height="7" fill="#D0C4AE"/>
<rect x="42" y="3"  width="2" height="2" fill="#D0C4AE"/>
<rect x="44" y="5"  width="2" height="2" fill="#D0C4AE"/>
<!-- mask -->
<rect x="22" y="9"  width="24" height="22" fill="#E2D6C0"/>
<rect x="20" y="11" width="2"  height="18" fill="#C8BAA2"/>
<rect x="46" y="11" width="2"  height="18" fill="#C8BAA2"/>
<rect x="22" y="9"  width="24" height="2"  fill="#D4C6B0"/>
<rect x="22" y="29" width="24" height="2"  fill="#B8AA92"/>
<rect x="24" y="15" width="20" height="1"  fill="#C8BAA2" opacity="0.4"/>
<rect x="24" y="20" width="20" height="1"  fill="#C8BAA2" opacity="0.3"/>
<!-- crack (battle worn) -->
<rect x="37" y="10" width="1" height="5" fill="#8B0A1F" opacity="0.55"/>
<rect x="36" y="14" width="1" height="3" fill="#8B0A1F" opacity="0.4"/>
<!-- eyes (narrowed — focused) -->
<rect x="24" y="17" width="8"  height="8" fill="#06020A"/>
<rect x="36" y="17" width="8"  height="8" fill="#06020A"/>
<rect x="24" y="17" width="3"  height="2" fill="#8B0A1F" opacity="0.9"/>
<rect x="36" y="17" width="3"  height="2" fill="#8B0A1F" opacity="0.9"/>
<!-- body -->
<rect x="26" y="31" width="16" height="14" fill="#0C0418"/>
<rect x="24" y="33" width="2"  height="10" fill="#140820"/>
<rect x="42" y="33" width="2"  height="10" fill="#140820"/>
<!-- collar -->
<rect x="30" y="31" width="8" height="2" fill="#C8A44A" opacity="0.5"/>
<!-- cape (flowing back — dynamic) -->
<rect x="16" y="35" width="36" height="32" fill="#6B0A1A"/>
<rect x="16" y="35" width="16" height="32" fill="#9B1428"/>
<rect x="14" y="37" width="2"  height="28" fill="#4A0812"/>
<rect x="52" y="35" width="4"  height="20" fill="#4A0812"/>
<rect x="18" y="37" width="2"  height="28" fill="#C8102E" opacity="0.4"/>
<!-- cape streaming right (action) -->
<rect x="52" y="37" width="6"  height="4" fill="#6B0A1A" opacity="0.8"/>
<rect x="54" y="41" width="8"  height="3" fill="#6B0A1A" opacity="0.6"/>
<rect x="56" y="44" width="8"  height="3" fill="#4A0812" opacity="0.5"/>
<rect x="52" y="55" width="6"  height="4" fill="#6B0A1A" opacity="0.7"/>
<rect x="54" y="59" width="7"  height="3" fill="#4A0812" opacity="0.5"/>
<!-- NEEDLE (diagonal, thrust forward) -->
<rect x="4"  y="50" width="20" height="2" fill="#C8C0A0"/>
<rect x="4"  y="50" width="20" height="2" fill="rgba(216,202,180,0.3)" y="49"/>
<rect x="2"  y="49" width="4"  height="4" fill="#D8D0B0"/>
<rect x="1"  y="48" width="3"  height="3" fill="#E0D8C0"/>
<!-- needle guard -->
<rect x="22" y="47" width="5" height="8" fill="#1A1030"/>
<rect x="22" y="47" width="2" height="8" fill="#0C0420" opacity="0.6"/>
<!-- needle silk -->
<rect x="24" y="48" width="12" height="1" fill="#D8CAB4" opacity="0.3"/>
<!-- bounce animation -->
<animateTransform attributeName="transform" type="translate" values="0,0; 2,-3; 0,0" dur="1.8s" repeatCount="indefinite"/>
</g>
</svg>
